<?xml version="1.0" encoding="iso-8859-1"?>
<!-- Generator: Adobe Illustrator 19.0.0, SVG Export Plug-In . SVG Version: 6.00 Build 0)  -->
<svg version="1.1" id="Capa_1" xmlns="http://www.w3.org/2000/svg" xmlns:xlink="http://www.w3.org/1999/xlink" x="0px" y="0px"
	 viewBox="0 0 512 512" style="enable-background:new 0 0 512 512;" xml:space="preserve">
<circle style="fill:#947165;" cx="256.001" cy="241" r="220.57"/>
<path style="opacity:0.12;enable-background:new    ;" d="M256.001,20.426c-4.417,0-8.8,0.145-13.153,0.401
	c16.827,0.99,33.142,3.878,48.747,8.432c-11.378-1.706-23.016-2.618-34.871-2.618c-68.857,0-130.748,29.809-173.482,77.223
	c-19.941,25.088-34.537,54.613-42.055,86.86c3.397,3.247,8.589,4.589,13.548,2.137c0.075-0.037,0.15-0.074,0.225-0.112l17.175-8.618
	c21.65-10.863,47.648-8.082,66.51,7.114l0,0c17.142,13.81,40.334,17.463,60.892,9.592l21.328-8.166
	c27.254-10.435,57.35-10.727,84.801-0.824l8.868,3.199c32.629,11.772,68.732,9.058,99.234-7.461l0,0
	c8.947-4.845,19.194-6.241,28.889-4.207c4.959,18.369,7.61,37.684,7.61,57.621c0,117.403-91.726,213.367-207.421,220.173
	c4.353,0.256,8.736,0.401,13.153,0.401c121.819,0,220.574-98.754,220.574-220.574S377.82,20.426,256.001,20.426z"/>
<path style="fill:#BC90D9;" d="M482.932,238.44H29.07c-9.626,0-16.655,9.096-14.228,18.411L74.61,486.18
	c2.812,10.79,12.556,18.319,23.706,18.319h315.37c11.15,0,20.894-7.53,23.706-18.319l59.768-229.329
	C499.588,247.536,492.558,238.44,482.932,238.44z"/>
<path style="fill:#FFABCA;" d="M67.016,457.04l7.595,29.141c2.812,10.79,12.556,18.319,23.706,18.319h315.37
	c11.15,0,20.894-7.53,23.706-18.319l7.595-29.141H67.016z"/>
<path style="opacity:0.12;enable-background:new    ;" d="M102.357,238.44H29.07c-9.626,0-16.656,9.096-14.228,18.411L74.61,486.18
	c2.812,10.79,12.556,18.319,23.706,18.319h53.937L102.357,238.44z"/>
<path style="opacity:0.12;enable-background:new    ;" d="M411.093,238.44h73.287c9.626,0,16.656,9.096,14.228,18.411L438.84,486.18
	c-2.812,10.79-12.556,18.319-23.706,18.319h-53.937L411.093,238.44z"/>
<path style="fill:#FFABCA;" d="M256.725,7.5c-99.948,0-185.222,62.8-218.533,151.092c-3.832,10.157,6.812,19.941,16.543,15.128
	c0.075-0.037,0.15-0.074,0.225-0.112l17.175-8.618c21.65-10.863,47.648-8.082,66.51,7.114l0,0
	c17.142,13.81,40.334,17.463,60.892,9.592l21.328-8.166c27.254-10.435,57.35-10.727,84.801-0.824l8.868,3.199
	c32.629,11.772,68.732,9.058,99.234-7.461l0,0c12.754-6.907,28.154-6.813,40.824,0.248l0,0c0.908,0.506,1.821,0.974,2.74,1.406
	c9.945,4.676,20.446-5.26,16.379-15.469C439.373,68.429,355.17,7.5,256.725,7.5z"/>
<path style="opacity:0.12;enable-background:new    ;" d="M473.713,154.63C439.373,68.429,355.17,7.5,256.725,7.5
	c-4.721,0-9.41,0.141-14.062,0.418C335.02,13.394,412.92,72.556,445.616,154.63c1.455,3.653,1.039,7.268-0.544,10.194
	c3.281,0.892,6.481,2.174,9.522,3.869l0,0c0.908,0.506,1.821,0.974,2.74,1.406C467.278,174.775,477.779,164.839,473.713,154.63z"/>
<path style="fill:#ED6EA4;" d="M404.011,49.833c-12.629-7.154-28.673-2.691-35.789,9.972c-7.1,12.635-2.426,28.659,10.185,35.803
	l38.241,21.664c3.947,2.236,8.958,0.849,11.194-3.098l21.663-38.241c7.144-12.611,2.915-28.758-9.671-35.945
	C427.221,32.783,411.165,37.204,404.011,49.833z"/>
<path style="fill:#FFFFFF;" d="M247.365,67.658c-13.869-4.28-28.583,3.518-32.819,17.413c-4.226,13.864,3.774,28.513,17.623,32.787
	l41.996,12.962c4.334,1.338,8.932-1.092,10.27-5.426l12.962-41.996c4.274-13.849-3.317-28.714-17.152-33.036
	C266.381,46.03,251.646,53.789,247.365,67.658z"/>
<path style="fill:#ED6EA4;" d="M129.98,48.761c-3.021-14.196-17.002-23.245-31.199-20.172C84.615,31.655,75.723,45.78,78.74,59.957
	l9.149,42.988c0.944,4.437,5.306,7.268,9.743,6.324l42.988-9.149c14.176-3.017,23.457-16.891,20.489-31.077
	C158.133,54.825,144.176,45.74,129.98,48.761z"/>
<g>
	<path style="fill:#FFFFFF;" d="M185.119,372.703h-12.814c-4.143,0-7.5-3.358-7.5-7.5s3.357-7.5,7.5-7.5h12.814
		c4.143,0,7.5,3.358,7.5,7.5S189.261,372.703,185.119,372.703z"/>
	<path style="fill:#FFFFFF;" d="M342.385,372.703h-12.814c-4.143,0-7.5-3.358-7.5-7.5s3.357-7.5,7.5-7.5h12.814
		c4.142,0,7.5,3.358,7.5,7.5S346.528,372.703,342.385,372.703z"/>
</g>
<path d="M271.954,137.986c1.538,0.475,3.094,0.7,4.624,0.7c6.712,0,12.943-4.34,15.023-11.08l12.962-41.996
	c5.512-17.857-4.394-36.88-22.081-42.407c-8.62-2.693-17.77-1.861-25.76,2.343c-5.941,3.125-10.71,7.834-13.859,13.59
	c-6.531-0.643-13.106,0.643-19.037,3.789c-7.977,4.232-13.82,11.321-16.453,19.959c-5.404,17.725,4.727,36.629,22.585,42.141
	L271.954,137.986z M221.72,87.257c1.463-4.797,4.707-8.732,9.136-11.082c2.742-1.455,5.733-2.193,8.751-2.193
	c1.855,0,3.722,0.279,5.546,0.842c3.957,1.22,8.156-0.998,9.378-4.954c1.479-4.791,4.737-8.715,9.175-11.05
	c4.439-2.334,9.52-2.795,14.303-1.301c9.82,3.068,15.303,13.685,12.223,23.666l-12.962,41.996c-0.116,0.376-0.517,0.588-0.892,0.472
	l-41.996-12.962C224.4,107.611,218.72,97.099,221.72,87.257z M334.848,340.825c0-0.623,0.507-1.13,1.13-1.13
	c0.623,0,1.13,0.507,1.13,1.13c0,4.142,3.357,7.5,7.5,7.5s7.5-3.358,7.5-7.5c0-8.895-7.236-16.13-16.13-16.13
	s-16.13,7.236-16.13,16.13c0,4.142,3.358,7.5,7.5,7.5C331.491,348.325,334.848,344.967,334.848,340.825z M177.582,340.825
	c0-0.623,0.507-1.13,1.13-1.13s1.13,0.507,1.13,1.13c0,4.142,3.357,7.5,7.5,7.5s7.5-3.358,7.5-7.5c0-8.895-7.236-16.13-16.13-16.13
	c-8.893,0-16.13,7.236-16.13,16.13c0,4.142,3.357,7.5,7.5,7.5C174.224,348.325,177.582,344.967,177.582,340.825z M500.501,239.566
	c-4.052-5.244-10.089-8.341-16.67-8.601c-0.829-19.153-4.029-37.996-9.542-56.193c0.553-0.421,1.096-0.862,1.611-1.347
	c5.908-5.562,7.784-14.029,4.78-21.571c-8.225-20.647-19.277-40.034-32.876-57.703l8.227-14.523
	c9.212-16.26,3.615-36.965-12.477-46.155c-7.843-4.478-16.959-5.627-25.664-3.234c-6.474,1.779-12.14,5.356-16.45,10.303
	c-4.252-1.381-8.716-1.87-13.177-1.486C349.119,13.501,303.704,0,256.725,0c-17.765,0-35.485,1.943-52.67,5.776
	c-4.043,0.902-6.589,4.91-5.688,8.953s4.909,6.587,8.953,5.688C223.435,16.822,240.057,15,256.725,15
	c40.343,0,79.451,10.614,113.938,30.8c-3.623,2.754-6.681,6.242-8.979,10.331c-9.078,16.154-3.235,36.791,13.026,46.002
	l38.24,21.664c2.439,1.382,5.096,2.039,7.719,2.039c5.48,0,10.81-2.866,13.698-7.965l5.362-9.465
	c11.017,15.176,20.088,31.611,27.015,49c1.056,2.65-0.436,4.447-1.126,5.097c-0.359,0.338-1.047,0.874-1.988,1.133
	c-0.077,0.017-0.154,0.039-0.231,0.059c-0.804,0.173-1.775,0.134-2.874-0.383c-0.765-0.359-1.53-0.753-2.279-1.17
	c-14.991-8.355-32.953-8.465-48.047-0.291c-4.762,2.578-9.749,4.836-14.824,6.71c-3.885,1.435-5.872,5.748-4.436,9.634
	c1.118,3.029,3.985,4.904,7.036,4.904c0.862,0,1.74-0.15,2.598-0.466c5.741-2.121,11.384-4.675,16.77-7.591
	c10.555-5.716,23.116-5.641,33.604,0.205c1.049,0.585,2.124,1.137,3.197,1.641c1.82,0.856,3.715,1.414,5.625,1.686
	c5.186,16.95,8.222,34.51,9.051,52.368H43.181c0.767-16.509,3.428-32.784,7.928-48.549c2.367-0.203,4.72-0.844,6.946-1.945
	l17.444-8.752c18.971-9.518,41.912-7.066,58.442,6.251c12.486,10.06,27.953,15.312,43.572,15.312c8.335,0,16.715-1.496,24.706-4.556
	l21.328-8.167c25.564-9.788,53.823-10.063,79.574-0.772l8.868,3.199c17.238,6.22,35.245,8.677,53.522,7.303
	c4.13-0.311,7.227-3.911,6.916-8.041s-3.899-7.222-8.041-6.917c-16.152,1.214-32.07-0.958-47.308-6.455l-8.868-3.199
	c-29.13-10.511-61.104-10.2-90.027,0.874l-21.328,8.167c-17.997,6.889-38.497,3.661-53.505-8.429
	c-21.093-16.994-50.367-20.124-74.579-7.978L51.607,166.9l-0.196,0.097c-2.41,1.193-4.261-0.118-4.944-0.738
	c-0.551-0.499-2.269-2.335-1.256-5.02c8.298-21.996,19.878-42.361,34.492-60.726l0.85,3.993c0.874,4.105,3.294,7.624,6.813,9.909
	c2.578,1.674,5.521,2.539,8.523,2.539c1.098,0,2.203-0.115,3.303-0.349l42.988-9.148c18.279-3.891,30.063-21.811,26.268-39.949
	c-1.85-8.84-7.034-16.423-14.601-21.353c-1.96-1.277-4.019-2.322-6.144-3.157c8.237-4.545,16.754-8.575,25.46-12.043
	c3.848-1.533,5.725-5.895,4.192-9.743c-1.532-3.849-5.896-5.723-9.743-4.192c-12.334,4.913-24.301,10.897-35.693,17.805
	c-2.459-3.497-5.58-6.532-9.28-8.925c-7.582-4.902-16.619-6.551-25.447-4.64c-18.111,3.919-29.681,21.98-25.79,40.259l4.336,20.375
	c-19.295,21.924-34.287,46.813-44.565,74.052c-2.853,7.562-0.804,15.974,5.22,21.431c0.143,0.13,0.295,0.246,0.441,0.371
	c-4.976,17.275-7.883,35.12-8.667,53.219c-6.58,0.26-12.616,3.357-16.668,8.601c-4.236,5.482-5.664,12.472-3.917,19.176
	L48.92,417.357c1.045,4.008,5.14,6.412,9.149,5.366c4.008-1.044,6.41-5.141,5.366-9.149L22.1,254.96
	c-0.567-2.175-0.104-4.442,1.271-6.221c1.374-1.778,3.451-2.798,5.699-2.798h453.862c2.248,0,4.325,1.02,5.699,2.798
	c1.375,1.779,1.838,4.046,1.271,6.221l-59.768,229.33c-1.95,7.484-8.715,12.711-16.448,12.711H98.316
	c-7.733,0-14.498-5.227-16.448-12.711l-10.739-41.208c-1.046-4.008-5.143-6.412-9.149-5.366c-4.008,1.045-6.41,5.141-5.366,9.149
	l10.739,41.208C71.025,502.161,83.757,512,98.316,512h315.37c14.559,0,27.291-9.839,30.964-23.928l59.768-229.33
	C506.165,252.038,504.737,245.048,500.501,239.566z M442.98,72.235l-21.663,38.24c-0.193,0.342-0.629,0.463-0.973,0.27
	l-38.241-21.664c-9.089-5.148-12.383-16.634-7.343-25.602c2.457-4.372,6.47-7.521,11.299-8.866c1.671-0.465,3.368-0.696,5.056-0.696
	c3.191,0,6.346,0.825,9.2,2.441c1.729,0.979,3.778,1.233,5.697,0.702c1.917-0.53,3.544-1.801,4.524-3.532
	c2.472-4.362,6.495-7.496,11.329-8.825c4.834-1.327,9.896-0.69,14.249,1.796C445.049,51.602,448.128,63.146,442.98,72.235z
	 M100.368,35.919c1.331-0.288,2.671-0.43,4.001-0.43c3.566,0,7.062,1.024,10.128,3.006c4.21,2.723,7.104,6.923,8.147,11.827
	c0.414,1.946,1.584,3.647,3.253,4.73c1.668,1.083,3.697,1.459,5.645,1.044c4.905-1.042,9.917-0.111,14.118,2.626
	c4.201,2.737,7.08,6.947,8.107,11.856c2.106,10.07-4.492,20.031-14.71,22.206l-42.988,9.149c-0.193,0.04-0.372,0.007-0.535-0.099
	c-0.165-0.107-0.269-0.259-0.31-0.45l-9.148-42.988C83.901,48.179,90.312,38.096,100.368,35.919z M257.345,362.823
	c3.099,2.312,6.94,3.681,11.094,3.681c10.253,0,18.595-8.342,18.595-18.595c0-4.142-3.357-7.5-7.5-7.5s-7.5,3.358-7.5,7.5
	c0,1.982-1.612,3.595-3.595,3.595c-1.982,0-3.594-1.613-3.594-3.595c0-4.142-3.357-7.5-7.5-7.5s-7.5,3.358-7.5,7.5
	c0,1.982-1.612,3.595-3.595,3.595c-1.982,0-3.595-1.613-3.595-3.595c0-4.142-3.358-7.5-7.5-7.5c-4.143,0-7.5,3.358-7.5,7.5
	c0,10.253,8.342,18.595,18.595,18.595C250.405,366.504,254.246,365.135,257.345,362.823z"/>
<g>
</g>
<g>
</g>
<g>
</g>
<g>
</g>
<g>
</g>
<g>
</g>
<g>
</g>
<g>
</g>
<g>
</g>
<g>
</g>
<g>
</g>
<g>
</g>
<g>
</g>
<g>
</g>
<g>
</g>
</svg>
